<?xml version="1.0" encoding="UTF-8"?>
<svg id="Capa_1" data-name="Capa 1" xmlns="http://www.w3.org/2000/svg" viewBox="0 0 1000 390.95">
  <defs>
    <style>
      .cls-1 {
        fill: #533580;
      }

      .cls-2 {
        fill: #ff7c02;
      }

      .cls-3 {
        fill: #999;
      }
    </style>
  </defs>
  <g>
    <path class="cls-2" d="M102.93,165.87c.77,18.92,11.35,31.44,29.93,31.44,10.58,0,20.9-5.06,25.03-15.19h41.03c-8,31.98-36.64,45.83-66.57,45.83-43.61,0-73.28-27.18-73.28-73.54,0-42.37,32.77-72.74,72.25-72.74,47.99,0,71.99,37.31,69.92,84.2h-98.31ZM157.37,140.56c-.77-15.46-11.35-28.25-26.06-28.25-15.48,0-25.8,11.46-28.38,28.25h54.44Z"/>
    <path class="cls-2" d="M212.84,85.67h42.57v18.92h.52c8-14.12,26.06-22.92,42.06-22.92,44.64,0,48.25,33.57,48.25,53.56v88.73h-43.86v-66.88c0-18.92,2.06-38.1-21.93-38.1-16.51,0-23.74,14.39-23.74,29.58v75.41h-43.86V85.67Z"/>
    <path class="cls-2" d="M402.48,165.87c.77,18.92,11.35,31.44,29.93,31.44,10.58,0,20.9-5.06,25.03-15.19h41.03c-8,31.98-36.64,45.83-66.57,45.83-43.61,0-73.28-27.18-73.28-73.54,0-42.37,32.77-72.74,72.25-72.74,47.99,0,71.99,37.31,69.92,84.2h-98.31ZM456.93,140.56c-.77-15.46-11.35-28.25-26.06-28.25-15.48,0-25.8,11.46-28.38,28.25h54.44Z"/>
    <path class="cls-2" d="M513.94,85.67h42.57v24.25h.52c6.45-17.59,21.42-26.91,40.25-26.91,3.35,0,6.97.27,10.32,1.07v41.3c-5.68-1.6-10.84-2.67-16.77-2.67-21.67,0-33.03,15.46-33.03,32.77v68.48h-43.86V85.67Z"/>
    <g>
      <path class="cls-1" d="M614.1,30.22h87.75c32.32-.54,67.79,8.14,67.79,48.57,0,17.36-9.98,31.47-24.7,39.07,19.97,5.97,32.32,23.88,32.32,45.86,0,46.13-32.84,60.24-73.04,60.24h-90.12V30.22ZM662.97,106.47h37.83c8.41,0,19.97-4.61,19.97-18.45s-9.72-18.72-19.97-18.72h-37.83v37.17ZM662.97,183.53h39.15c15.5,0,26.27-5.7,26.27-21.71,0-17.09-11.56-22.79-26.27-22.79h-39.15v44.5Z"/>
      <path class="cls-1" d="M837.68,65.5h-44.66V30.22h44.66v35.27ZM793.02,83.14h44.66v140.82h-44.66V83.14Z"/>
      <path class="cls-1" d="M940.93,112.98h-27.59v64.04c0,11.12,6.31,13.57,16.03,13.57,3.68,0,7.62-.54,11.56-.54v33.92c-8.14.27-16.29,1.36-24.44,1.36-38.1,0-47.82-11.4-47.82-49.65v-62.68h-22.6v-29.85h22.6v-42.6h44.66v42.6h27.59v29.85Z"/>
    </g>
  </g>
  <g>
    <path class="cls-3" d="M758.38,310.9c-8.2.02-13.08-5.85-13.08-13.69-.04-7.88,4.91-13.94,12.85-13.97,2.76,0,5.39.41,8.33,2.05l.53-6.53c-2.82-1.07-6.19-1.57-8.71-1.57-13.05.03-21.08,7.45-21.07,20.61.07,12.97,8.7,19.19,21.17,19.18,2.9-.02,5.94-.54,8.71-1.25l-.34-6.45c-1.8.96-5.39,1.62-8.4,1.62M921.97,277.27h-.38l-18.96,39.31h7.31l4.04-9.11h14.72l4.04,9.11h8.19l-18.96-39.31ZM916.03,302.83l5.27-11.89,5.31,11.89h-10.57ZM864.09,293.51c-4.98-2.15-7.78-3.13-7.82-6.38,0-2.79,2.41-4.66,6.1-4.66,3.38,0,7,.97,9.91,3.33v-6.72c-3.04-1.05-6.53-1.71-9.69-1.71-8.38,0-13.89,4.13-13.8,10.71.02,3,1.07,5.32,3.26,7.29,1.46,1.33,3.2,2.27,7.38,4.07,5.84,2.54,8.18,4.06,8.18,7.14,0,3.48-3.03,5.79-7.17,5.79-3.34,0-7.34-1.22-11.21-3.19v6.93c3.47.93,7.07,1.5,10.51,1.5,9.43,0,15.28-4.49,15.19-12.06-.05-5.83-3.27-8.74-10.84-12.05M824.47,277.2h-7.67v39.38h22.63v-6h-14.96v-33.38ZM886.06,316.55h7.66v-39.28h-7.66v39.28ZM780.07,316.58h23.15v-6.12h-15.29v-11.15h14.02v-6.16h-14.02v-9.74h15.29v-6.14h-23.15v39.31ZM649.03,345.42l-41.22-59.54c-.31,2.24-.49,4.53-.49,6.85,0,25.63,17.8,47.04,41.71,52.69M659.69,346.8l-10.38-106.84c-11.28,2.65-21.2,8.75-28.57,17.16l34.81,89.44c1.36.14,2.75.18,4.14.24M715.17,285.88l-41.25,59.54c23.92-5.65,41.71-27.06,41.71-52.69,0-2.32-.19-4.61-.47-6.85M673.66,239.96l-10.36,106.84c1.38-.06,2.76-.11,4.15-.24l34.79-89.44c-7.37-8.4-17.28-14.51-28.58-17.16"/>
    <g>
      <path class="cls-3" d="M320.3,293.26c-.83-3.8-3.97-5.98-7.57-5.98-6.53,0-9.29,5.46-9.29,10.85s2.76,10.85,9.29,10.85c4.56,0,7.46-3.52,7.91-7.91h2.35c-.66,6.05-4.49,9.91-10.26,9.91-7.77,0-11.64-6.12-11.64-12.85s3.87-12.85,11.64-12.85c4.67,0,9.29,2.8,9.92,7.98h-2.35Z"/>
      <path class="cls-3" d="M342.12,301.55c0,5.11-2.97,9.43-8.43,9.43s-8.43-4.32-8.43-9.43,2.97-9.43,8.43-9.43,8.43,4.32,8.43,9.43ZM327.44,301.55c0,3.8,2.07,7.6,6.25,7.6s6.25-3.8,6.25-7.6-2.07-7.6-6.25-7.6-6.25,3.8-6.25,7.6Z"/>
      <path class="cls-3" d="M345.32,292.64h2.18v3.08h.07c.79-2.14,3.18-3.59,5.7-3.59,5.01,0,6.53,2.63,6.53,6.87v11.47h-2.18v-11.13c0-3.07-1-5.39-4.53-5.39s-5.53,2.62-5.6,6.11v10.4h-2.18v-17.83Z"/>
      <path class="cls-3" d="M374.78,302.14c.03,3.18,1.69,7.01,5.87,7.01,3.18,0,4.91-1.87,5.6-4.56h2.18c-.93,4.04-3.28,6.39-7.77,6.39-5.67,0-8.05-4.35-8.05-9.43,0-4.7,2.38-9.43,8.05-9.43s8.01,5.01,7.84,10.02h-13.72ZM386.31,300.31c-.1-3.28-2.14-6.36-5.67-6.36s-5.53,3.11-5.87,6.36h11.54Z"/>
      <path class="cls-3" d="M391.45,285.79h2.18v24.67h-2.18v-24.67Z"/>
      <path class="cls-3" d="M407.41,292.64h2v4.18h.07c1.11-2.87,3.52-4.56,6.74-4.42v2.18c-3.94-.21-6.63,2.7-6.63,6.39v9.5h-2.18v-17.83Z"/>
      <path class="cls-3" d="M419.56,302.14c.03,3.18,1.69,7.01,5.87,7.01,3.18,0,4.91-1.87,5.6-4.56h2.18c-.93,4.04-3.28,6.39-7.77,6.39-5.67,0-8.05-4.35-8.05-9.43,0-4.7,2.38-9.43,8.05-9.43s8.01,5.01,7.84,10.02h-13.72ZM431.1,300.31c-.1-3.28-2.14-6.36-5.67-6.36s-5.53,3.11-5.87,6.36h11.54Z"/>
      <path class="cls-3" d="M446.88,297.85c-.1-2.69-2.18-3.9-4.67-3.9-1.93,0-4.21.76-4.21,3.07,0,1.93,2.21,2.63,3.7,3.01l2.9.66c2.49.38,5.08,1.83,5.08,4.94,0,3.87-3.83,5.35-7.15,5.35-4.15,0-6.98-1.93-7.32-6.29h2.18c.17,2.94,2.35,4.46,5.25,4.46,2.04,0,4.87-.9,4.87-3.39,0-2.07-1.93-2.76-3.9-3.25l-2.8-.62c-2.83-.76-4.97-1.73-4.97-4.77,0-3.63,3.56-5.01,6.7-5.01,3.56,0,6.39,1.86,6.53,5.73h-2.18Z"/>
      <path class="cls-3" d="M452.81,292.64h2v3.38h.07c1-2.42,3.49-3.9,6.36-3.9,5.42,0,8.01,4.39,8.01,9.43s-2.59,9.43-8.01,9.43c-2.66,0-5.25-1.35-6.18-3.9h-.07v9.98h-2.18v-24.42ZM461.24,293.95c-4.8,0-6.25,3.56-6.25,7.6,0,3.7,1.62,7.6,6.25,7.6,4.15,0,5.84-3.9,5.84-7.6s-1.69-7.6-5.84-7.6Z"/>
      <path class="cls-3" d="M472.42,298.09c.21-4.18,3.14-5.98,7.22-5.98,3.14,0,6.56.97,6.56,5.73v9.47c0,.83.41,1.31,1.28,1.31.24,0,.52-.07.69-.14v1.83c-.48.1-.83.14-1.42.14-2.21,0-2.56-1.24-2.56-3.11h-.07c-1.52,2.32-3.08,3.63-6.49,3.63s-5.98-1.62-5.98-5.22c0-5.01,4.87-5.18,9.57-5.73,1.8-.21,2.8-.45,2.8-2.42,0-2.94-2.11-3.66-4.67-3.66-2.69,0-4.7,1.24-4.77,4.15h-2.18ZM484.03,300.72h-.07c-.28.52-1.24.69-1.83.8-3.7.66-8.29.62-8.29,4.11,0,2.18,1.93,3.52,3.97,3.52,3.32,0,6.25-2.11,6.22-5.6v-2.83Z"/>
      <path class="cls-3" d="M490.59,285.79h2.18v24.67h-2.18v-24.67Z"/>
      <path class="cls-3" d="M512.62,310.46h-2v-3.39h-.07c-.93,2.32-3.77,3.9-6.36,3.9-5.42,0-8.01-4.39-8.01-9.43s2.59-9.43,8.01-9.43c2.66,0,5.25,1.35,6.18,3.9h.07v-10.23h2.18v24.67ZM504.2,309.15c4.63,0,6.25-3.9,6.25-7.6s-1.62-7.6-6.25-7.6c-4.15,0-5.84,3.9-5.84,7.6s1.69,7.6,5.84,7.6Z"/>
      <path class="cls-3" d="M532.72,301.55c0,5.11-2.97,9.43-8.43,9.43s-8.43-4.32-8.43-9.43,2.97-9.43,8.43-9.43,8.43,4.32,8.43,9.43ZM518.04,301.55c0,3.8,2.07,7.6,6.25,7.6s6.25-3.8,6.25-7.6-2.07-7.6-6.25-7.6-6.25,3.8-6.25,7.6Z"/>
      <path class="cls-3" d="M561.24,310.46h-2v-3.39h-.07c-.93,2.32-3.76,3.9-6.36,3.9-5.42,0-8.01-4.39-8.01-9.43s2.59-9.43,8.01-9.43c2.66,0,5.25,1.35,6.19,3.9h.07v-10.23h2.18v24.67ZM552.81,309.15c4.63,0,6.25-3.9,6.25-7.6s-1.62-7.6-6.25-7.6c-4.15,0-5.84,3.9-5.84,7.6s1.69,7.6,5.84,7.6Z"/>
      <path class="cls-3" d="M566.66,302.14c.03,3.18,1.69,7.01,5.87,7.01,3.18,0,4.91-1.87,5.6-4.56h2.18c-.93,4.04-3.28,6.39-7.77,6.39-5.67,0-8.05-4.35-8.05-9.43,0-4.7,2.38-9.43,8.05-9.43s8.01,5.01,7.84,10.02h-13.71ZM578.19,300.31c-.1-3.28-2.14-6.36-5.67-6.36s-5.53,3.11-5.87,6.36h11.54Z"/>
    </g>
  </g>
</svg>